<svg xmlns="http://www.w3.org/2000/svg" style="display:none">
  <symbol id="truck" viewBox="0 0 256 256" focusable="false">
    <g color="currentColor" weight="light">
      <path d="M253.57,117.78l-14-35a13.93,13.93,0,0,0-13-8.8H190V64a6,6,0,0,0-6-6H32A14,14,0,0,0,18,72V184a14,14,0,0,0,14,14H50.6a30,30,0,0,0,58.8,0h53.2a30,30,0,0,0,58.8,0H240a14,14,0,0,0,14-14V120A6,6,0,0,0,253.57,117.78ZM190,86h36.58a2,2,0,0,1,1.86,1.26L239.14,114H190ZM30,72a2,2,0,0,1,2-2H178v68H30ZM80,210a18,18,0,1,1,18-18A18,18,0,0,1,80,210Zm82.6-24H109.4a30,30,0,0,0-58.8,0H32a2,2,0,0,1-2-2V150H178v15.48A30.1,30.1,0,0,0,162.6,186ZM192,210a18,18,0,1,1,18-18A18,18,0,0,1,192,210Zm50-26a2,2,0,0,1-2,2H221.4A30.05,30.05,0,0,0,192,162c-.67,0-1.34,0-2,.07V126h52Z"></path>
    </g>
  </symbol>
  <symbol id="world" viewBox="0 0 256 256" focusable="false">
    <g color="currentColor" weight="light">
      <path d="M128,26A102,102,0,1,0,230,128,102.12,102.12,0,0,0,128,26Zm90,102a89.55,89.55,0,0,1-7.46,35.86l-46.69-28.71a13.94,13.94,0,0,0-5.46-2l-22.82-3.07A14.06,14.06,0,0,0,121.06,138h-9.92a2,2,0,0,1-1.8-1.13l-3.8-7.86a13.94,13.94,0,0,0-9.66-7.59l-10.71-2.3L94.4,103a2,2,0,0,1,1.74-1h16.71a13.9,13.9,0,0,0,6.76-1.75l12.25-6.75a14.73,14.73,0,0,0,2.62-1.88l26.91-24.33a13.93,13.93,0,0,0,2.83-17.21L161,44.25A90.16,90.16,0,0,1,218,128ZM144.6,39.54l9.15,16.39a2,2,0,0,1-.41,2.46L126.43,82.72a1.84,1.84,0,0,1-.37.27l-12.25,6.76a2,2,0,0,1-1,.25H96.14A14,14,0,0,0,84,97L73.18,115.91a2,2,0,0,1-.19-.35L61.5,84.89a2,2,0,0,1,0-1.48L72.68,57.06A89.9,89.9,0,0,1,144.6,39.54ZM38,128A89.52,89.52,0,0,1,49.38,84.23a13.85,13.85,0,0,0,.89,4.87l11.49,30.67a13.94,13.94,0,0,0,10.16,8.78l21.44,4.6a2,2,0,0,1,1.38,1.09l3.8,7.86a14.07,14.07,0,0,0,12.6,7.9h4.56l-8.49,19a14,14,0,0,0,2.51,15.2l.1.11,19.68,20.26a2,2,0,0,1,.46,1.7L127.7,218A90.1,90.1,0,0,1,38,128Zm102.08,89.19,1.67-8.6a14.07,14.07,0,0,0-3.47-12.16l-.1-.11L118.5,176.06a2,2,0,0,1-.33-2.14l13.7-30.73A2,2,0,0,1,134,142l22.82,3.08a2,2,0,0,1,.78.27L205,174.55A90.18,90.18,0,0,1,140.08,217.19Z"></path>
    </g>
  </symbol>
  <symbol id="delivery" viewBox="0 0 256 256" focusable="false">
    <g color="currentColor" weight="light">
      <path d="M222.72,67.91l-88-48.18a13.9,13.9,0,0,0-13.44,0l-88,48.18A14,14,0,0,0,26,80.18v95.64a14,14,0,0,0,7.28,12.27l88,48.18a13.92,13.92,0,0,0,13.44,0l88-48.18A14,14,0,0,0,230,175.82V80.18A14,14,0,0,0,222.72,67.91ZM127,30.25a2,2,0,0,1,1.92,0L212.51,76,178.57,94.57,94.05,48.31ZM122,223,39,177.57a2,2,0,0,1-1-1.75V86.66l84,46ZM43.49,76,81.56,55.15l84.51,46.26L128,122.24ZM218,175.82a2,2,0,0,1-1,1.75h0L134,223V132.64l36-19.71V152a6,6,0,0,0,12,0V106.37l36-19.71Z"></path>
    </g>
  </symbol>
  <symbol id="chair" viewBox="0 0 256 256" focusable="false">
    <g color="currentColor" weight="light">
      <path d="M208,138H174V102h18a14,14,0,0,0,14-14V40a14,14,0,0,0-14-14H64A14,14,0,0,0,50,40V88a14,14,0,0,0,14,14H82v36H48a14,14,0,0,0-14,14v16a14,14,0,0,0,14,14H58v42a6,6,0,0,0,12,0V182H186v42a6,6,0,0,0,12,0V182h10a14,14,0,0,0,14-14V152A14,14,0,0,0,208,138ZM62,88V40a2,2,0,0,1,2-2H192a2,2,0,0,1,2,2V88a2,2,0,0,1-2,2H64A2,2,0,0,1,62,88Zm32,14h68v36H94Zm116,66a2,2,0,0,1-2,2H48a2,2,0,0,1-2-2V152a2,2,0,0,1,2-2H208a2,2,0,0,1,2,2Z"></path>
    </g>
  </symbol>
</svg>
